<?xml version="1.0" standalone="no"?>
<!DOCTYPE svg PUBLIC "-//W3C//DTD SVG 20010904//EN"
 "http://www.w3.org/TR/2001/REC-SVG-20010904/DTD/svg10.dtd">
<svg version="1.0" xmlns="http://www.w3.org/2000/svg"
 width="736.000000pt" height="1104.000000pt" viewBox="0 0 736.000000 1104.000000"
 preserveAspectRatio="xMidYMid meet">
<metadata>
Created by potrace 1.16, written by Peter Selinger 2001-2019
</metadata>
<g transform="translate(0.000000,1104.000000) scale(0.100000,-0.100000)"
fill="#000000" stroke="none">
<path d="M0 5520 l0 -5520 3680 0 3680 0 0 5520 0 5520 -3680 0 -3680 0 0
-5520z m4125 2011 c-1 -9 -7 -27 -15 -41 -12 -23 -14 -24 -21 -5 -6 16 -8 13
-8 -13 -1 -21 -19 -61 -51 -114 -28 -44 -48 -83 -46 -86 3 -2 251 -4 551 -3
l545 1 0 -25 c0 -21 5 -25 27 -25 l27 0 -22 16 c-26 18 -29 34 -6 34 8 0 12
-4 9 -10 -3 -5 1 -10 9 -10 9 0 16 5 16 10 0 19 41 10 65 -14 25 -25 46 -17
25 9 -11 13 3 15 99 15 94 0 111 -2 111 -16 0 -8 5 -12 10 -9 6 4 8 10 5 15
-2 4 13 8 35 8 31 1 40 -3 41 -16 1 -15 2 -15 6 1 4 15 19 17 127 17 84 0 126
-4 135 -12 11 -11 12 -10 7 0 -6 11 25 13 163 11 94 -1 174 -6 177 -10 3 -5
10 -7 15 -4 5 4 9 1 9 -4 0 -6 3 -10 8 -10 22 4 34 -3 28 -16 -3 -10 1 -15 12
-15 16 -1 16 -2 -1 -14 -16 -12 -14 -14 23 -18 43 -4 67 8 28 14 -15 2 -22 9
-20 20 1 9 -10 26 -24 37 l-27 21 47 0 c26 0 46 -5 46 -11 0 -5 -5 -7 -10 -4
-6 4 -19 3 -28 -1 -13 -5 -9 -9 18 -15 21 -4 40 -3 47 3 10 8 13 6 13 -6 0 -9
5 -16 10 -16 14 0 12 37 -2 43 -7 3 -3 6 9 6 12 1 25 -3 28 -9 3 -5 1 -10 -4
-10 -6 0 -11 -6 -11 -12 1 -7 8 -4 18 8 26 30 62 16 62 -25 0 -22 4 -29 15
-25 11 5 12 10 2 26 -10 17 -9 22 2 26 11 4 11 6 0 13 -9 5 8 9 44 9 57 0 58
-1 73 -35 18 -43 18 -49 -1 -41 -12 4 -14 0 -9 -19 5 -19 2 -25 -10 -25 -25 0
-19 -17 9 -22 19 -4 25 -1 25 13 0 24 16 25 24 2 5 -12 -14 -37 -66 -90 -40
-40 -76 -73 -81 -73 -5 0 -29 -22 -53 -49 -31 -35 -50 -48 -63 -44 -10 3 -22
0 -25 -6 -4 -6 0 -11 11 -11 12 0 -9 -26 -62 -80 -49 -49 -82 -75 -85 -68 -6
15 -40 20 -40 7 0 -5 5 -9 10 -9 14 0 13 -27 -1 -36 -6 -3 -15 0 -20 7 -4 7
-11 10 -16 6 -4 -5 -1 -12 6 -16 7 -5 10 -14 7 -20 -4 -6 -12 -8 -18 -5 -7 4
-8 2 -4 -4 4 -7 -3 -17 -18 -23 -14 -7 -23 -15 -21 -19 2 -4 -18 -28 -45 -55
l-48 -47 -80 -2 c-78 -1 -109 7 -85 22 7 5 9 13 4 21 -11 17 -34 4 -27 -15 3
-8 2 -14 -2 -14 -11 0 -422 89 -469 101 -24 6 -43 15 -43 19 0 4 -9 10 -20 13
-11 3 -20 0 -20 -6 0 -6 -2 -8 -5 -6 -2 3 -2 15 2 27 4 18 8 20 19 11 11 -9
14 -8 14 4 0 9 7 23 16 31 14 15 14 16 -5 16 -12 0 -21 -5 -21 -11 0 -18 -23
-4 -26 15 -7 47 18 58 59 26 24 -19 26 -20 37 -3 9 15 10 11 5 -17 l-6 -35 26
29 c24 26 25 30 11 45 -14 13 -19 14 -38 2 -16 -10 -23 -10 -26 -2 -2 6 -12
11 -22 11 -22 0 -44 35 -36 56 3 8 1 14 -4 14 -21 0 -8 31 17 41 18 7 23 13
16 20 -8 8 -17 7 -32 -1 -12 -6 -26 -8 -31 -5 -18 11 -10 32 18 45 15 7 22 15
15 17 -7 3 -13 11 -13 18 0 7 6 16 13 19 8 3 5 11 -12 25 -13 12 -19 21 -14
21 6 0 19 8 31 18 15 13 18 22 11 29 -6 6 -8 19 -5 29 8 26 7 34 -1 32 -5 -2
-7 -6 -6 -10 2 -5 -6 -8 -16 -8 -11 0 -21 6 -24 13 -3 9 -9 8 -23 -4 -10 -9
-32 -19 -49 -22 -16 -4 -24 -4 -17 -1 16 7 -3 34 -24 34 -8 0 -19 9 -26 20
-17 26 -28 25 -28 -1 0 -17 -4 -20 -23 -15 -26 6 -71 -19 -61 -35 3 -5 0 -8
-7 -7 -6 2 -13 -2 -16 -9 -2 -6 12 -14 36 -18 33 -5 38 -9 28 -20 -7 -7 -14
-12 -17 -10 -3 1 -14 -1 -25 -6 -17 -6 -17 -8 -2 -8 12 -1 17 -9 17 -28 -1
-24 -2 -26 -11 -10 -7 12 -17 16 -30 12 -11 -4 -19 -2 -19 4 0 6 5 11 10 11 6
0 10 7 10 15 0 8 -6 15 -14 15 -9 0 -18 -19 -25 -50 -15 -70 -15 -71 15 -64
20 5 25 3 22 -7 -3 -8 -13 -13 -22 -11 -10 2 -23 -2 -31 -8 -7 -6 -19 -9 -26
-8 -8 2 -13 -5 -13 -14 3 -28 -15 -21 -27 10 -11 26 -11 26 -19 6 -5 -12 -15
-24 -24 -27 -23 -9 -20 -30 3 -24 13 3 18 0 15 -8 -3 -7 5 -15 20 -19 19 -5
26 -13 26 -31 0 -17 5 -25 18 -25 20 0 54 20 35 20 -7 0 -13 5 -13 10 0 6 8 5
20 -2 11 -7 16 -14 10 -16 -19 -7 -10 -53 16 -79 31 -31 28 -35 -17 -24 -19 5
-69 17 -112 26 -69 15 -77 19 -72 36 8 23 -22 27 -31 4 -7 -17 -34 -21 -34 -5
0 5 12 17 28 27 49 32 66 63 33 63 -24 0 -36 29 -16 36 17 7 21 34 5 34 -5 0
-10 9 -10 21 0 11 -4 18 -9 15 -15 -10 -22 26 -9 43 21 26 31 31 55 24 17 -4
23 -1 23 12 0 14 -6 16 -32 11 -36 -7 -58 -23 -58 -42 0 -10 -11 -13 -34 -11
-19 1 -32 6 -28 11 3 5 -2 7 -11 3 -9 -3 -19 -2 -22 3 -7 12 -55 13 -55 2 0
-4 16 -14 35 -21 33 -12 39 -20 36 -47 -1 -7 6 -15 15 -18 9 -3 14 -13 11 -21
-5 -12 -1 -12 21 -4 14 6 32 15 39 21 7 6 13 8 13 5 0 -3 3 -12 6 -21 4 -11 0
-16 -14 -16 -12 0 -24 -4 -27 -10 -3 -5 1 -10 9 -10 9 0 16 -4 16 -10 0 -5 -5
-10 -11 -10 -20 0 3 -20 24 -21 21 0 21 -1 2 -9 -29 -12 -32 -12 -50 6 -9 9
-19 13 -23 9 -4 -4 -2 -9 3 -12 31 -11 39 -22 27 -36 -7 -7 -9 -17 -5 -20 3
-4 1 -7 -6 -7 -24 0 -207 41 -223 50 -10 6 -25 10 -33 10 -8 0 -15 4 -15 9 0
5 -6 9 -12 8 -34 -1 -46 4 -44 19 0 9 -5 19 -13 22 -10 3 -12 0 -8 -11 4 -10
-2 -17 -19 -21 -26 -7 -74 2 -74 13 0 4 -15 7 -32 7 -43 0 -90 11 -97 23 -10
15 -58 24 -65 12 -4 -6 2 -16 14 -23 23 -15 26 -45 5 -72 -14 -18 -15 -18 -49
2 -34 20 -34 20 -39 1 -4 -16 -2 -19 15 -14 11 4 26 1 36 -8 9 -9 44 -25 77
-37 33 -13 64 -26 69 -31 6 -5 17 -9 26 -9 17 0 284 -95 310 -110 12 -7 10
-10 -10 -10 -24 -1 -24 -2 -4 -10 29 -11 40 -30 18 -30 -25 0 -11 -10 22 -16
15 -3 31 -7 36 -10 21 -13 26 9 6 26 -13 10 -20 21 -17 24 6 6 115 -29 184
-59 17 -7 50 -20 75 -28 25 -8 90 -32 145 -52 55 -20 154 -56 220 -80 66 -24
152 -55 190 -70 39 -15 104 -39 145 -54 l75 -27 3 -55 3 -54 -293 -134 c-161
-74 -319 -147 -351 -163 -41 -20 -73 -28 -111 -28 -52 0 -54 1 -106 58 -56 59
-387 407 -522 548 -64 66 -76 83 -65 94 10 12 9 12 -4 2 -14 -10 -24 -4 -64
40 -27 29 -89 95 -138 145 -79 82 -88 95 -76 109 8 9 14 24 14 33 0 9 10 20
23 26 24 11 30 35 8 35 -8 0 -21 3 -30 6 -9 3 -16 1 -16 -6 0 -6 5 -8 10 -5
12 8 13 3 0 -29 -23 -62 -28 -18 -28 228 l1 253 74 57 c41 31 81 56 89 56 8 0
13 4 10 9 -9 15 39 40 65 34 23 -5 23 -5 5 9 -19 15 -19 16 5 23 13 4 29 15
36 25 15 21 40 22 38 1z m-845 -22 c0 -15 4 -19 16 -15 22 8 67 -21 58 -37 -4
-7 -4 -9 1 -5 9 8 65 -22 65 -35 0 -4 -4 -6 -9 -2 -5 3 -12 1 -16 -5 -3 -5 3
-11 14 -11 12 -1 25 -2 30 -3 21 -3 101 -67 101 -81 0 -8 5 -15 10 -15 6 0 10
-95 10 -264 0 -236 -2 -266 -17 -285 l-18 -22 -17 21 c-17 19 -17 21 -2 19 8
-1 24 22 24 34 0 4 -8 7 -17 7 -9 0 -14 -3 -10 -6 3 -4 -4 -15 -16 -25 -22
-19 -22 -19 -3 -34 19 -14 19 -15 -6 -15 -15 0 -29 4 -33 10 -3 5 -13 2 -24
-8 -13 -12 -15 -21 -7 -30 8 -12 11 -12 16 0 3 9 16 11 37 8 l31 -5 -97 -102
c-93 -98 -145 -136 -153 -111 -3 7 -11 9 -24 4 -16 -7 -15 -10 15 -18 32 -9
33 -10 15 -29 -10 -12 -21 -16 -27 -10 -5 5 -17 6 -28 4 -18 -5 -19 -6 -2 -19
17 -12 15 -16 -22 -56 -109 -118 -179 -186 -189 -184 -6 2 -7 1 -3 -2 11 -6
-12 -32 -29 -32 -7 0 -11 -6 -8 -14 3 -9 -3 -17 -15 -21 -12 -3 -21 -11 -21
-16 0 -5 -36 -48 -81 -94 -56 -57 -86 -82 -97 -78 -12 3 -13 2 -5 -4 10 -7 -4
-27 -50 -76 l-62 -67 -57 0 c-32 0 -58 4 -58 9 0 5 -12 12 -26 15 -25 7 -243
104 -254 114 -3 3 1 7 8 9 6 3 12 12 12 21 0 14 -2 15 -9 3 -11 -17 -41 -23
-56 -12 -5 4 -32 16 -60 26 -27 10 -44 20 -37 23 26 8 11 23 -18 17 -23 -5
-30 -3 -30 8 0 10 -7 13 -20 10 -11 -3 -34 3 -52 14 -18 10 -59 29 -90 42
l-58 23 0 54 c0 45 4 55 22 65 12 7 35 12 50 11 15 0 28 3 28 8 0 12 161 72
177 66 7 -3 13 -1 13 4 0 5 10 12 23 15 12 4 38 14 57 22 19 9 47 17 62 17 15
1 28 4 28 7 0 3 17 13 38 22 49 22 283 107 293 107 4 0 11 -9 14 -20 9 -30 22
-24 18 8 l-4 27 348 126 348 126 3 62 c3 52 1 61 -14 61 -16 0 -438 -88 -529
-110 -63 -16 -277 -60 -305 -64 -14 -2 -43 -8 -65 -14 -81 -22 -378 -83 -411
-84 -19 -1 -34 -5 -34 -10 0 -5 -9 0 -21 11 -13 12 -18 24 -13 32 5 9 2 10
-10 6 -14 -5 -17 -3 -12 8 3 8 1 15 -3 15 -9 0 -21 -24 -21 -42 0 -5 5 -8 12
-6 19 7 50 -24 35 -34 -24 -15 -67 -9 -68 10 0 13 -2 12 -9 -5 -5 -13 -11 -23
-12 -23 -2 0 -17 -4 -35 -9 -26 -7 -31 -7 -26 5 3 9 -2 14 -16 14 -12 0 -21 4
-21 10 0 5 8 6 18 3 15 -6 15 -5 3 10 -7 9 -10 17 -5 17 11 0 -18 20 -28 20
-5 0 -8 -22 -8 -49 l0 -48 -42 -6 c-35 -5 -46 -3 -60 14 -9 11 -14 27 -11 34
7 19 -11 19 -27 0 -7 -8 -21 -15 -31 -15 -11 0 -18 -4 -17 -9 2 -5 -9 -20 -24
-34 -15 -14 -24 -28 -20 -32 15 -15 -124 8 -141 23 -20 18 -17 70 6 84 9 6 9
8 0 8 -7 0 -13 7 -13 15 0 8 5 15 12 15 6 0 3 9 -7 20 -25 27 -32 25 -33 -11
0 -17 -9 -37 -19 -44 -16 -12 -23 -9 -58 23 -108 101 -205 196 -205 203 0 9
38 22 107 35 18 3 33 11 33 16 0 6 -10 8 -22 5 -28 -8 -68 2 -68 15 0 6 9 8
20 5 11 -3 20 -1 20 4 0 5 -3 9 -7 9 -5 0 -19 3 -32 7 -23 6 -24 4 -18 -29 5
-34 4 -36 -26 -41 -39 -5 -71 11 -56 30 6 7 7 18 3 24 -5 9 -10 8 -18 -3 -9
-13 -14 -11 -36 9 -14 13 -19 23 -12 23 17 0 46 29 38 37 -3 4 -12 1 -18 -5
-8 -8 -15 -9 -25 -1 -10 9 -13 7 -13 -7 -1 -15 -7 -12 -32 15 -17 19 -26 37
-21 38 19 7 2 43 -21 43 -20 1 -20 2 -3 14 9 7 17 18 17 25 0 6 7 11 15 11 9
0 12 -6 9 -15 -4 -8 -1 -15 5 -15 6 0 11 4 11 10 0 11 69 8 88 -4 11 -6 13 -1
10 20 -2 24 1 30 22 32 14 2 30 8 36 13 6 5 19 7 28 3 10 -4 16 -1 16 9 0 10
-11 17 -31 19 -29 3 -32 6 -34 40 -2 37 -2 37 36 35 27 -1 39 -7 43 -20 2 -11
10 -15 20 -11 10 4 18 0 22 -10 4 -11 19 -16 48 -16 23 0 51 -7 62 -15 22 -17
54 -20 54 -5 0 6 -7 10 -15 10 -9 0 -18 7 -22 16 -4 12 -15 15 -42 11 -20 -3
-45 -1 -56 3 -18 8 -18 9 5 10 14 1 19 4 13 7 -34 13 -4 20 83 18 89 -2 98 -4
109 -25 13 -24 29 -13 19 13 -5 13 49 15 420 16 273 0 426 -3 426 -9 0 -6 5
-10 11 -10 5 0 7 4 4 10 -4 6 184 10 544 10 368 0 552 -4 556 -11 5 -7 11 -6
20 1 8 7 24 9 37 5 l23 -7 -23 17 c-12 9 -26 13 -32 10 -8 -5 -25 17 -65 84
-5 10 -4 12 3 7 7 -4 12 -3 12 2 0 5 -9 12 -20 15 -22 6 -26 28 -10 57 9 17 8
19 -12 11 -19 -7 -26 -3 -39 18 -11 18 -12 29 -5 38 16 18 26 15 26 -8z m-10
-1339 c0 -11 -6 -20 -14 -20 -8 0 -18 -5 -22 -11 -5 -8 1 -10 18 -6 23 6 27 3
36 -34 8 -32 8 -39 -3 -35 -7 2 -19 -1 -27 -7 -7 -7 -11 -11 -9 -10 2 2 11 -3
19 -10 12 -9 16 -9 19 1 3 6 9 12 15 12 6 0 8 -7 4 -15 -3 -8 -2 -15 3 -15 10
0 66 -82 63 -93 -1 -4 6 -11 15 -14 10 -4 40 -22 67 -41 43 -30 61 -38 89 -41
4 -1 7 -154 7 -341 l0 -339 -30 2 c-16 1 -31 8 -31 15 -1 6 -2 18 -3 25 -1 6
-10 15 -21 18 -18 5 -18 7 8 19 15 7 27 19 27 27 0 7 5 13 11 13 5 0 7 5 4 10
-4 6 -16 3 -32 -10 -14 -11 -32 -20 -39 -20 -8 0 -14 -9 -14 -20 0 -11 -4 -20
-10 -20 -5 0 -10 1 -10 3 0 1 -4 17 -9 35 -9 30 -8 32 14 26 12 -3 26 -1 29 5
4 6 1 11 -7 11 -8 0 -18 7 -21 16 -5 13 -9 14 -21 4 -13 -11 -14 -10 -9 5 5
13 15 16 41 12 24 -4 33 -2 30 6 -2 7 -16 13 -30 15 -15 2 -27 7 -27 12 0 14
32 21 46 9 15 -13 17 -9 8 15 -3 9 -12 16 -20 16 -8 0 -14 8 -14 18 0 12 -2
14 -8 4 -7 -10 -15 -10 -36 -2 -15 5 -32 8 -37 4 -5 -3 -9 0 -9 5 0 6 -7 11
-15 11 -8 0 -15 5 -15 11 0 6 -16 8 -39 6 -22 -2 -46 0 -53 4 -10 7 -9 9 5 9
9 0 17 5 17 10 0 6 -5 10 -10 10 -13 0 -53 -22 -62 -35 -4 -5 -10 -2 -14 8 -4
11 18 83 60 190 89 230 88 230 -119 82 -87 -63 -167 -115 -177 -115 -10 0 -18
-6 -18 -14 0 -7 -28 -33 -62 -57 -86 -61 -82 -59 -117 -49 -34 10 -43 -2 -11
-16 19 -8 17 -12 -29 -47 -53 -39 -66 -44 -76 -26 -9 13 35 60 48 52 6 -3 7
-1 3 5 -4 6 17 37 45 69 80 89 106 119 222 250 59 67 116 125 127 128 11 4 19
12 18 19 -4 15 36 66 53 66 7 0 9 3 6 7 -4 3 3 17 15 30 22 24 52 30 63 13 9
-15 25 -12 25 4 0 7 10 17 23 20 22 6 22 7 -5 22 -16 8 -28 17 -28 20 0 6 52
72 58 73 1 1 2 -8 2 -19z m831 -30 c6 0 7 5 4 10 -3 6 -1 10 4 10 16 0 14 -11
-6 -32 -10 -11 -12 -18 -4 -18 6 0 21 -9 33 -20 12 -10 26 -16 32 -12 7 4 4 8
-6 10 -18 3 -26 22 -9 22 12 0 373 -412 379 -432 2 -10 9 -18 16 -18 14 0 211
-225 211 -242 0 -27 -36 -8 -181 97 -82 59 -171 124 -199 143 -75 53 -154 110
-212 154 -50 38 -53 39 -75 24 -12 -9 -18 -16 -12 -16 6 0 25 -39 43 -86 29
-77 31 -89 20 -116 -11 -26 -10 -32 4 -40 9 -5 17 -15 17 -22 0 -8 8 -16 18
-18 22 -6 136 -298 129 -333 -3 -17 0 -25 9 -25 17 0 47 -69 40 -92 -2 -10 0
-18 5 -18 5 0 9 -9 9 -20 0 -37 -34 -22 -70 32 -19 28 -34 57 -32 64 2 8 -4
14 -12 14 -21 0 -31 21 -15 32 11 8 10 9 -3 4 -12 -3 -26 8 -48 36 -16 23 -30
46 -30 51 0 5 -8 17 -18 26 -10 9 -37 43 -60 75 l-42 59 -1 -39 c0 -21 0 -88
-1 -147 0 -102 -1 -109 -19 -104 -25 7 -24 -9 1 -30 17 -15 20 -30 20 -90 0
-62 -3 -73 -17 -74 -17 -1 -17 -2 0 -6 24 -6 25 -137 1 -151 -14 -8 -14 -11
-2 -23 18 -18 25 -423 8 -444 -8 -9 -8 -15 -1 -20 7 -4 9 -78 6 -224 l-5 -218
-71 -136 c-39 -75 -74 -135 -78 -133 -4 3 -13 1 -21 -5 -13 -7 -12 -9 3 -9 15
0 12 -10 -18 -70 -19 -38 -36 -70 -38 -70 -1 0 -4 26 -5 57 -2 37 2 60 10 66
10 7 10 10 1 14 -17 6 -17 93 -1 93 9 0 9 3 0 12 -17 17 -17 225 1 231 10 3
10 9 0 26 -19 30 -16 101 4 123 15 17 15 18 0 18 -11 0 -17 8 -17 25 0 14 5
25 11 25 8 0 8 4 0 14 -14 17 -14 313 0 322 6 4 6 11 -1 19 -7 8 -9 220 -8
670 l3 659 59 30 c113 57 185 154 209 278 8 44 13 55 15 36 2 -16 8 -28 13
-28z m-935 -702 c4 4 3 0 -4 -10 -11 -14 -10 -17 8 -23 15 -5 26 -1 36 12 11
15 15 16 23 4 8 -12 12 -12 25 -2 8 7 22 11 31 9 13 -2 12 -8 -7 -35 -13 -18
-27 -32 -33 -32 -25 3 -35 -2 -35 -17 0 -8 5 -12 10 -9 6 3 10 3 10 -2 -1 -14
-24 -39 -42 -46 -10 -3 -18 -14 -18 -23 0 -10 -5 -14 -16 -10 -8 3 -25 -3 -36
-14 l-22 -20 22 0 c26 0 27 -4 5 -41 -19 -32 -33 -38 -33 -14 0 8 -5 14 -12
13 -6 -2 -18 9 -27 24 -14 24 -14 28 2 46 9 10 17 28 17 39 0 11 7 37 15 57 8
20 22 52 30 72 12 29 18 34 28 25 8 -6 18 -7 23 -3z m308 -300 c3 -13 1 -27
-4 -32 -14 -14 -12 -26 5 -26 9 0 12 6 8 17 -5 12 -2 15 10 10 8 -3 21 1 28 9
6 8 17 13 22 11 13 -4 16 -80 4 -88 -5 -4 -4 -16 2 -28 10 -18 9 -21 -6 -22
-17 -1 -17 -2 0 -6 9 -2 15 -8 13 -12 -3 -4 -6 -61 -7 -127 -1 -100 -4 -120
-18 -126 -15 -6 -15 -7 0 -7 19 -1 19 2 21 -515 0 -293 -1 -331 -16 -341 -20
-15 -21 -35 -2 -35 18 0 31 -69 16 -84 -8 -8 -10 -3 -8 19 3 41 -11 64 -26 43
-6 -8 -19 -17 -28 -21 -25 -9 -23 -31 3 -24 15 4 22 -1 30 -19 12 -33 12 -34
-6 -34 -9 0 -12 -6 -9 -15 5 -11 11 -12 24 -5 18 9 19 5 18 -72 0 -46 1 -87 2
-93 10 -43 -14 -46 -36 -3 -15 29 -15 32 0 44 12 9 14 14 6 19 -7 4 -10 19 -6
35 5 27 4 28 -30 25 -31 -3 -36 0 -54 36 -11 21 -17 39 -13 39 5 0 1 5 -7 10
-12 8 -12 10 5 10 l20 1 -20 11 c-21 11 -54 48 -55 61 0 4 7 7 15 7 20 0 19
24 -1 55 -17 26 -16 29 10 19 9 -3 16 -12 16 -20 0 -8 5 -14 10 -14 6 0 10 9
10 19 0 11 5 23 10 26 6 3 10 12 10 18 0 8 -3 7 -9 -2 -6 -10 -19 -12 -43 -7
-33 6 -36 4 -46 -26 -11 -32 -12 -32 -6 -3 3 17 12 35 20 41 20 16 18 24 -7
24 -11 0 -18 -4 -14 -9 3 -5 1 -12 -5 -16 -6 -4 -10 9 -10 34 0 23 5 41 11 41
6 0 8 -8 4 -19 -5 -15 -1 -19 19 -17 13 0 23 3 22 6 -16 40 -31 59 -37 48 -4
-7 -11 -9 -15 -5 -4 3 -1 14 6 23 12 13 11 17 -1 25 -8 5 -9 9 -2 9 21 0 43
-12 37 -21 -3 -5 2 -6 10 -3 11 4 16 0 16 -14 0 -15 5 -19 20 -15 11 3 17 10
14 15 -12 19 -11 74 3 93 13 19 13 19 13 0 0 -11 4 -15 8 -10 4 6 13 10 20 10
6 0 11 3 10 6 -2 3 3 13 11 22 9 12 10 17 2 17 -8 0 -10 8 -6 20 4 11 2 20 -4
20 -6 0 -11 -7 -11 -15 0 -23 -14 -18 -26 10 -9 18 -9 25 0 29 7 3 5 10 -7 19
-19 15 -7 34 13 22 6 -3 10 -1 10 5 0 6 -7 13 -15 17 -13 4 -14 8 -3 22 7 9
19 27 26 40 14 23 13 24 -16 18 -30 -6 -30 -6 -16 21 8 15 14 33 14 40 0 6 4
12 9 12 5 0 11 -6 14 -12 2 -7 8 -10 12 -6 12 12 -6 30 -26 25 -21 -6 -25 3
-8 20 8 8 18 8 35 0 19 -8 28 -7 37 2 9 10 8 15 -8 26 -11 8 -25 18 -31 23 -5
5 -20 15 -32 21 -25 13 -31 47 -7 37 10 -4 15 1 15 15 0 11 -9 23 -21 27 -20
8 -19 9 8 21 16 8 23 16 16 18 -7 3 -13 9 -13 14 0 15 27 10 45 -8 14 -14 18
-14 26 -2 15 24 10 29 -33 30 -67 3 -72 4 -85 12 -15 10 4 47 24 47 18 0 16
17 -2 24 -8 3 -15 10 -15 16 0 5 7 10 15 10 8 0 15 5 15 10 0 6 -9 10 -20 10
-13 0 -18 5 -14 15 4 8 1 15 -5 15 -16 0 -27 -33 -13 -38 6 -2 8 -10 5 -18 -3
-9 -13 -12 -24 -9 -11 4 -19 2 -19 -4 0 -5 10 -13 23 -17 l22 -8 -25 -6 c-14
-3 -25 -11 -25 -17 0 -6 -3 -15 -7 -18 -4 -4 -1 -20 7 -36 19 -36 19 -38 -5
-32 -22 6 -27 23 -7 23 8 0 9 3 1 8 -12 8 -14 122 -2 122 4 0 8 7 8 16 0 8 -4
12 -10 9 -6 -4 -10 12 -10 39 0 40 3 46 21 46 15 0 19 -5 15 -15 -3 -8 -1 -15
5 -15 6 0 8 -4 5 -9 -6 -9 55 -22 64 -14 3 3 -3 10 -12 17 -18 13 -14 55 6 68
6 4 7 10 3 14 -4 4 -13 0 -20 -10 -11 -15 -14 -15 -32 -1 -16 14 -17 16 -3 11
10 -3 24 2 33 10 17 18 37 10 34 -14 -2 -10 1 -27 5 -40 6 -19 10 -21 23 -11
12 10 16 10 24 -2 6 -10 3 -15 -11 -17 -20 -3 -25 -13 -14 -25 12 -11 44 18
44 40 0 13 5 23 10 23 6 0 10 6 10 14 0 9 -7 12 -20 9 -11 -3 -20 0 -20 6 0 6
6 11 13 11 6 0 -1 11 -17 25 -16 14 -33 25 -38 25 -5 0 -6 5 -3 10 4 6 1 17
-5 25 -16 19 -20 98 -6 107 20 14 34 8 40 -14z"/>
<path d="M5483 7164 c3 -3 2 -17 -3 -30 -5 -13 -6 -24 -1 -24 5 0 11 -9 14
-21 3 -11 15 -23 26 -26 12 -3 21 -9 21 -14 0 -15 -16 -10 -35 11 -10 11 -21
17 -26 14 -5 -3 -19 2 -31 10 -14 9 -29 12 -37 7 -20 -13 -53 -1 -47 16 4 9 0
13 -10 11 -8 -2 -14 -7 -14 -12 1 -5 -4 -12 -11 -16 -9 -6 -8 -12 4 -25 15
-15 23 -35 14 -35 -2 0 -14 9 -27 20 -27 23 -56 26 -63 6 -7 -18 3 -56 14 -56
5 0 3 -11 -3 -25 -6 -14 -19 -25 -30 -25 -10 0 -18 -4 -18 -10 0 -16 18 -12
40 10 18 18 24 32 22 51 -2 9 50 5 66 -4 17 -11 15 -38 -2 -31 -14 5 -62 -14
-54 -21 2 -2 20 0 40 4 46 11 63 1 54 -33 -5 -19 -2 -26 8 -26 17 0 38 -24 29
-34 -4 -3 -19 5 -34 20 -23 22 -32 25 -61 18 -18 -4 -28 -9 -21 -11 7 -2 9
-11 6 -19 -4 -10 3 -14 23 -15 16 0 41 -3 55 -5 15 -2 37 0 50 5 13 5 18 10
10 10 -11 1 -11 4 -1 16 11 13 14 13 26 -2 7 -10 14 -13 14 -7 0 7 10 15 23
18 22 6 22 7 2 18 -11 6 -22 12 -24 14 -2 2 6 16 18 32 25 36 26 42 5 42 -9 0
-24 10 -34 22 -18 22 -19 22 -38 5 -15 -14 -21 -15 -25 -5 -3 7 -5 2 -4 -12 1
-16 -3 -25 -13 -25 -8 0 -15 5 -15 10 0 6 -4 16 -9 24 -6 9 0 20 19 35 24 19
32 21 61 12 21 -7 35 -19 39 -33 5 -21 6 -22 34 -5 16 9 29 21 28 27 -1 5 17
11 41 13 23 2 42 7 42 12 0 6 -26 8 -57 5 -32 -2 -52 -2 -45 1 20 9 14 26 -8
19 -11 -4 -20 -2 -20 4 0 6 6 11 14 11 21 0 31 21 15 31 -8 5 -18 9 -24 9 -5
0 -4 -4 4 -9 10 -7 10 -10 1 -16 -15 -9 -30 13 -23 32 3 7 -1 13 -8 13 -7 0
-10 -3 -6 -6z"/>
</g>
</svg>
