<svg version="1.1" id="Layer_1" xmlns="http://www.w3.org/2000/svg" xmlns:xlink="http://www.w3.org/1999/xlink" x="0px" y="0px"
	 width="100%" viewBox="0 0 900 900" enable-background="new 0 0 900 900" xml:space="preserve">
<path fill="#FEFEFE" opacity="1.000000" stroke="none" 
	d="
M481.000000,901.000000 
	C320.666656,901.000000 160.833328,901.000000 1.000000,901.000000 
	C1.000000,601.000000 1.000000,301.000000 1.000000,1.000000 
	C301.000000,1.000000 601.000000,1.000000 901.000000,1.000000 
	C901.000000,301.000000 901.000000,601.000000 901.000000,901.000000 
	C761.166687,901.000000 621.333313,901.000000 481.000000,901.000000 
M513.879883,405.929199 
	C540.408875,424.927734 566.956177,443.900848 593.434814,462.969421 
	C595.737427,464.627594 597.375610,465.469025 598.875305,461.760620 
	C568.480957,426.142487 537.979553,390.398834 506.854065,353.923950 
	C505.741486,358.829834 505.013031,362.523346 504.060669,366.158142 
	C499.938141,381.891998 491.600830,394.564392 476.490417,401.549042 
	C469.551727,404.756378 466.997131,409.545135 467.081818,416.847778 
	C467.462433,449.666199 467.701874,482.486664 467.871887,515.307007 
	C468.241333,586.624268 468.519867,657.942078 468.900604,729.259277 
	C468.927460,734.292603 469.486328,739.323120 469.847321,745.154419 
	C471.033600,744.086853 471.510925,743.843384 471.702728,743.457825 
	C478.005280,730.788452 484.602142,718.252441 490.478271,705.387329 
	C497.829742,689.292053 501.321411,672.372986 500.913879,654.500854 
	C500.264587,626.024841 500.324249,597.532837 500.060089,569.047852 
	C499.755768,536.228088 499.402191,503.408752 499.168793,470.588562 
	C499.155945,468.781036 500.048035,466.967072 500.518921,465.156097 
	C501.995239,466.229828 503.850952,467.022491 504.887787,468.421875 
	C513.114197,479.524475 521.181213,490.745117 529.304504,501.924164 
	C535.533508,510.496277 541.773254,519.060669 548.008179,527.628479 
	C548.377502,527.460083 548.746826,527.291748 549.116150,527.123352 
	C546.944702,519.549438 545.088989,511.867523 542.540283,504.422760 
	C535.965393,485.217773 528.562744,466.280762 522.505676,446.919220 
	C518.355225,433.652374 515.907104,419.852966 512.954834,406.037323 
	C512.954834,406.037323 513.207520,405.778900 513.879883,405.929199 
M513.282776,157.028992 
	C502.263123,164.463104 491.041504,171.618515 480.284760,179.415329 
	C470.876556,186.234680 466.872925,195.923019 467.047546,207.601807 
	C467.289093,223.758713 467.640137,239.944031 466.955780,256.075226 
	C466.412201,268.887573 470.866455,279.010803 479.604340,287.904755 
	C518.131775,327.120331 556.556946,366.436371 595.070129,405.665985 
	C602.080139,412.806366 605.533264,413.212708 614.605103,408.848419 
	C638.453796,397.375366 662.113403,385.475800 686.277710,374.709869 
	C695.154419,370.755066 698.596375,365.157928 698.799255,356.078369 
	C698.987000,347.681427 697.719360,345.158234 689.820068,342.084747 
	C669.814392,334.300873 649.786499,326.573975 629.777771,318.797913 
	C589.607178,303.186249 549.436951,287.573578 509.280945,271.924469 
	C498.000031,267.528198 496.722382,264.927521 499.593597,254.529312 
	C500.468781,251.359665 501.814331,250.607147 504.913391,251.384079 
	C513.617554,253.566147 522.414001,255.379486 531.120300,257.553650 
	C606.307312,276.329559 681.497009,295.094971 756.640564,314.043701 
	C764.989624,316.149078 771.151184,314.030609 776.455200,307.473755 
	C780.427368,302.563324 784.818115,297.970764 789.235901,293.445007 
	C811.928406,270.198273 834.686707,247.015823 857.429260,223.817993 
	C864.589172,216.514709 864.868896,211.690704 857.495056,204.412994 
	C854.658203,201.613159 850.757202,199.339645 846.933655,198.229874 
	C842.062378,196.815994 836.778931,196.322510 831.671387,196.312027 
	C813.355286,196.274429 795.038574,196.758011 776.721863,196.775742 
	C683.410156,196.866028 590.098511,196.873215 496.786835,196.897705 
	C495.246582,196.898117 493.706268,196.749756 491.318848,196.627411 
	C497.992096,185.480865 504.183746,175.247559 510.244324,164.937210 
	C511.721039,162.425018 512.767273,159.659775 514.361633,157.011261 
	C514.239685,157.005646 514.117737,157.000046 513.282776,157.028992 
M380.500000,196.838699 
	C281.671997,196.818069 182.844009,196.792328 84.016014,196.785416 
	C75.042656,196.784790 66.057495,196.642868 57.099354,197.045670 
	C48.685856,197.423981 42.715405,201.733612 39.630322,209.739410 
	C36.902390,216.818420 41.201035,220.831787 45.675671,225.417999 
	C71.385445,251.768890 96.930901,278.282440 122.302971,304.958740 
	C128.097229,311.050842 134.668091,312.355591 142.290192,310.574921 
	C214.023849,293.816406 285.729889,276.939026 357.488831,260.289642 
	C371.191986,257.110229 385.092194,254.780029 398.776062,252.082748 
	C402.967682,262.441711 401.034851,267.766785 391.906799,272.149170 
	C390.409912,272.867798 388.861725,273.490753 387.305603,274.073364 
	C343.822174,290.352966 300.335815,306.624786 256.847198,322.890533 
	C239.698700,329.304474 222.489517,335.562225 205.435806,342.218628 
	C201.893539,343.601257 197.670593,345.710022 195.917542,348.734100 
	C191.050690,357.129517 196.036041,369.652893 204.803787,373.473724 
	C231.662628,385.178375 258.538910,396.843994 285.338409,408.683228 
	C296.691986,413.698883 300.525665,413.308258 309.152466,404.267273 
	C332.034851,380.286346 354.788788,356.182892 377.607941,332.141571 
	C392.975311,315.951172 408.383026,299.799072 423.737885,283.596832 
	C428.769989,278.287018 432.781403,272.349030 432.839386,264.709686 
	C433.009949,242.237793 433.104156,219.764313 432.980072,197.292831 
	C432.967957,195.101318 431.824097,192.251114 430.213104,190.838364 
	C417.068420,179.310989 403.718811,168.015656 390.326294,156.775116 
	C389.096954,155.743332 387.134766,155.584702 385.512878,155.020615 
	C385.226227,155.475555 384.939545,155.930496 384.652893,156.385422 
	C392.372772,169.648331 400.092651,182.911224 408.199219,196.838470 
	C398.733337,196.838470 390.116669,196.838470 380.500000,196.838699 
M399.020782,643.507385 
	C399.556183,655.111755 399.015106,666.890808 400.864471,678.281860 
	C404.113495,698.294067 414.655487,715.596497 423.939911,733.270325 
	C426.140869,737.460022 428.397430,741.620544 430.628418,745.794495 
	C431.082214,745.745239 431.536041,745.695984 431.989838,745.646667 
	C432.320465,743.160339 432.940063,740.673950 432.940186,738.187622 
	C432.946655,632.040588 432.835480,525.893555 432.985107,419.746765 
	C432.996033,411.987946 430.227722,406.886322 423.875183,402.839905 
	C408.650726,393.142426 398.401703,379.662445 393.824097,362.027557 
	C393.262360,359.863586 392.027344,357.874390 390.844147,355.220551 
	C388.195251,358.295898 386.021759,360.768280 383.903229,363.286896 
	C363.651764,387.363068 343.402130,411.440735 323.168884,435.532227 
	C316.531921,443.434784 309.946533,451.380615 303.333038,459.302917 
	C301.668549,461.296875 300.630035,463.202881 303.780853,464.689911 
	C304.248749,464.508209 304.595764,464.447754 304.853424,464.262848 
	C331.367157,445.233795 357.854095,426.167145 384.435608,407.233368 
	C385.896271,406.192993 388.140533,406.252808 390.020081,405.800476 
	C390.095367,407.785278 390.681671,409.921539 390.146912,411.725494 
	C388.730560,416.503235 386.820862,421.134125 385.122437,425.828888 
	C373.349762,458.371521 361.567780,490.910767 349.855469,523.475098 
	C349.348450,524.884888 349.494019,526.529358 349.335602,528.064514 
	C349.882629,528.264954 350.429688,528.465332 350.976715,528.665771 
	C366.658478,507.544891 382.340210,486.424042 398.906158,464.112305 
	C399.726349,469.397308 400.878784,473.270325 400.843903,477.132629 
	C400.345978,532.260071 399.687531,587.385986 399.020782,643.507385 
z"/>
<path fill="#9E9E9E" opacity="1.000000" stroke="none" 
	d="
M514.011414,157.010880 
	C512.767273,159.659775 511.721039,162.425018 510.244324,164.937210 
	C504.183746,175.247559 497.992096,185.480865 491.318848,196.627411 
	C493.706268,196.749756 495.246582,196.898117 496.786835,196.897705 
	C590.098511,196.873215 683.410156,196.866028 776.721863,196.775742 
	C795.038574,196.758011 813.355286,196.274429 831.671387,196.312027 
	C836.778931,196.322510 842.062378,196.815994 846.933655,198.229874 
	C850.757202,199.339645 854.658203,201.613159 857.495056,204.412994 
	C864.868896,211.690704 864.589172,216.514709 857.429260,223.817993 
	C834.686707,247.015823 811.928406,270.198273 789.235901,293.445007 
	C784.818115,297.970764 780.427368,302.563324 776.455200,307.473755 
	C771.151184,314.030609 764.989624,316.149078 756.640564,314.043701 
	C681.497009,295.094971 606.307312,276.329559 531.120300,257.553650 
	C522.414001,255.379486 513.617554,253.566147 504.913391,251.384079 
	C501.814331,250.607147 500.468781,251.359665 499.593597,254.529312 
	C496.722382,264.927521 498.000031,267.528198 509.280945,271.924469 
	C549.436951,287.573578 589.607178,303.186249 629.777771,318.797913 
	C649.786499,326.573975 669.814392,334.300873 689.820068,342.084747 
	C697.719360,345.158234 698.987000,347.681427 698.799255,356.078369 
	C698.596375,365.157928 695.154419,370.755066 686.277710,374.709869 
	C662.113403,385.475800 638.453796,397.375366 614.605103,408.848419 
	C605.533264,413.212708 602.080139,412.806366 595.070129,405.665985 
	C556.556946,366.436371 518.131775,327.120331 479.604340,287.904755 
	C470.866455,279.010803 466.412201,268.887573 466.955780,256.075226 
	C467.640137,239.944031 467.289093,223.758713 467.047546,207.601807 
	C466.872925,195.923019 470.876556,186.234680 480.284760,179.415329 
	C491.041504,171.618515 502.263123,164.463104 513.641846,157.014999 
	C514.000916,157.001007 514.011414,157.010880 514.011414,157.010880 
z"/>
<path fill="#9E9E9E" opacity="1.000000" stroke="none" 
	d="
M381.000000,196.838593 
	C390.116669,196.838470 398.733337,196.838470 408.199219,196.838470 
	C400.092651,182.911224 392.372772,169.648331 384.652893,156.385422 
	C384.939545,155.930496 385.226227,155.475555 385.512878,155.020615 
	C387.134766,155.584702 389.096954,155.743332 390.326294,156.775116 
	C403.718811,168.015656 417.068420,179.310989 430.213104,190.838364 
	C431.824097,192.251114 432.967957,195.101318 432.980072,197.292831 
	C433.104156,219.764313 433.009949,242.237793 432.839386,264.709686 
	C432.781403,272.349030 428.769989,278.287018 423.737885,283.596832 
	C408.383026,299.799072 392.975311,315.951172 377.607941,332.141571 
	C354.788788,356.182892 332.034851,380.286346 309.152466,404.267273 
	C300.525665,413.308258 296.691986,413.698883 285.338409,408.683228 
	C258.538910,396.843994 231.662628,385.178375 204.803787,373.473724 
	C196.036041,369.652893 191.050690,357.129517 195.917542,348.734100 
	C197.670593,345.710022 201.893539,343.601257 205.435806,342.218628 
	C222.489517,335.562225 239.698700,329.304474 256.847198,322.890533 
	C300.335815,306.624786 343.822174,290.352966 387.305603,274.073364 
	C388.861725,273.490753 390.409912,272.867798 391.906799,272.149170 
	C401.034851,267.766785 402.967682,262.441711 398.776062,252.082748 
	C385.092194,254.780029 371.191986,257.110229 357.488831,260.289642 
	C285.729889,276.939026 214.023849,293.816406 142.290192,310.574921 
	C134.668091,312.355591 128.097229,311.050842 122.302971,304.958740 
	C96.930901,278.282440 71.385445,251.768890 45.675671,225.417999 
	C41.201035,220.831787 36.902390,216.818420 39.630322,209.739410 
	C42.715405,201.733612 48.685856,197.423981 57.099354,197.045670 
	C66.057495,196.642868 75.042656,196.784790 84.016014,196.785416 
	C182.844009,196.792328 281.671997,196.818069 381.000000,196.838593 
z"/>
<path fill="#9F9F9F" opacity="1.000000" stroke="none" 
	d="
M399.044312,643.009827 
	C399.687531,587.385986 400.345978,532.260071 400.843903,477.132629 
	C400.878784,473.270325 399.726349,469.397308 398.906158,464.112305 
	C382.340210,486.424042 366.658478,507.544891 350.976715,528.665771 
	C350.429688,528.465332 349.882629,528.264954 349.335602,528.064514 
	C349.494019,526.529358 349.348450,524.884888 349.855469,523.475098 
	C361.567780,490.910767 373.349762,458.371521 385.122437,425.828888 
	C386.820862,421.134125 388.730560,416.503235 390.146912,411.725494 
	C390.681671,409.921539 390.095367,407.785278 390.020081,405.800476 
	C388.140533,406.252808 385.896271,406.192993 384.435608,407.233368 
	C357.854095,426.167145 331.367157,445.233795 304.853424,464.262848 
	C304.595764,464.447754 304.248749,464.508209 303.780853,464.689911 
	C300.630035,463.202881 301.668549,461.296875 303.333038,459.302917 
	C309.946533,451.380615 316.531921,443.434784 323.168884,435.532227 
	C343.402130,411.440735 363.651764,387.363068 383.903229,363.286896 
	C386.021759,360.768280 388.195251,358.295898 390.844147,355.220551 
	C392.027344,357.874390 393.262360,359.863586 393.824097,362.027557 
	C398.401703,379.662445 408.650726,393.142426 423.875183,402.839905 
	C430.227722,406.886322 432.996033,411.987946 432.985107,419.746765 
	C432.835480,525.893555 432.946655,632.040588 432.940186,738.187622 
	C432.940063,740.673950 432.320465,743.160339 431.989838,745.646667 
	C431.536041,745.695984 431.082214,745.745239 430.628418,745.794495 
	C428.397430,741.620544 426.140869,737.460022 423.939911,733.270325 
	C414.655487,715.596497 404.113495,698.294067 400.864471,678.281860 
	C399.015106,666.890808 399.556183,655.111755 399.044312,643.009827 
z"/>
<path fill="#9F9F9F" opacity="1.000000" stroke="none" 
	d="
M512.698059,406.291626 
	C515.907104,419.852966 518.355225,433.652374 522.505676,446.919220 
	C528.562744,466.280762 535.965393,485.217773 542.540283,504.422760 
	C545.088989,511.867523 546.944702,519.549438 549.116150,527.123352 
	C548.746826,527.291748 548.377502,527.460083 548.008179,527.628479 
	C541.773254,519.060669 535.533508,510.496277 529.304504,501.924164 
	C521.181213,490.745117 513.114197,479.524475 504.887787,468.421875 
	C503.850952,467.022491 501.995239,466.229828 500.518921,465.156097 
	C500.048035,466.967072 499.155945,468.781036 499.168793,470.588562 
	C499.402191,503.408752 499.755768,536.228088 500.060089,569.047852 
	C500.324249,597.532837 500.264587,626.024841 500.913879,654.500854 
	C501.321411,672.372986 497.829742,689.292053 490.478271,705.387329 
	C484.602142,718.252441 478.005280,730.788452 471.702728,743.457825 
	C471.510925,743.843384 471.033600,744.086853 469.847321,745.154419 
	C469.486328,739.323120 468.927460,734.292603 468.900604,729.259277 
	C468.519867,657.942078 468.241333,586.624268 467.871887,515.307007 
	C467.701874,482.486664 467.462433,449.666199 467.081818,416.847778 
	C466.997131,409.545135 469.551727,404.756378 476.490417,401.549042 
	C491.600830,394.564392 499.938141,381.891998 504.060669,366.158142 
	C505.013031,362.523346 505.741486,358.829834 506.854065,353.923950 
	C537.979553,390.398834 568.480957,426.142487 598.875305,461.760620 
	C597.375610,465.469025 595.737427,464.627594 593.434814,462.969421 
	C566.956177,443.900848 540.408875,424.927734 513.424194,405.683289 
	C512.878418,405.722107 512.788269,406.006866 512.698059,406.291626 
z"/>
<path fill="#9E9E9E" opacity="1.000000" stroke="none" 
	d="
M513.998352,156.997726 
	C514.117737,157.000046 514.239685,157.005646 514.186523,157.011078 
	C514.011414,157.010880 514.000916,157.001007 513.998352,156.997726 
z"/>
<path fill="#FEFEFE" opacity="1.000000" stroke="none" 
	d="
M512.826416,406.164490 
	C512.788269,406.006866 512.878418,405.722107 513.088013,405.608124 
	C513.207520,405.778900 512.954834,406.037323 512.826416,406.164490 
z"/>
</svg>